<?xml version="1.0" standalone="no"?>
<!DOCTYPE svg PUBLIC "-//W3C//DTD SVG 20010904//EN"
 "http://www.w3.org/TR/2001/REC-SVG-20010904/DTD/svg10.dtd">
<svg version="1.0" xmlns="http://www.w3.org/2000/svg"
 width="1228.000000pt" height="400.000000pt" viewBox="0 0 1228.000000 400.000000"
 preserveAspectRatio="xMidYMid meet">

<g transform="translate(0.000000,400.000000) scale(0.100000,-0.100000)"
fill="#000000" stroke="none">
<path d="M880 3915 c0 -42 -4 -75 -10 -75 -5 0 -7 -13 -3 -30 6 -32 2 -35 -27
-20 -17 9 -18 6 -15 -37 3 -28 11 -52 20 -59 15 -11 16 -23 13 -116 -1 -37
-32 -37 -70 -1 -35 33 -37 15 -6 -44 19 -36 26 -41 48 -37 22 5 23 4 10 -8 -9
-7 -14 -21 -12 -30 4 -22 -1 -22 -39 -2 -30 15 -31 15 -24 -8 10 -38 29 -72
47 -89 10 -9 18 -23 18 -32 0 -9 4 -18 8 -21 13 -8 13 -76 1 -76 -21 0 -49 21
-64 48 l-15 27 3 -35 c2 -19 9 -45 16 -58 6 -12 9 -27 6 -32 -3 -5 -1 -19 5
-31 17 -30 4 -36 -23 -11 -24 23 -47 29 -47 13 0 -6 4 -12 10 -16 5 -3 7 -11
4 -18 -2 -7 4 -22 16 -32 11 -10 20 -22 20 -27 0 -5 7 -16 15 -24 8 -9 15 -20
15 -25 0 -13 -39 8 -72 38 l-26 25 -7 -22 c-7 -22 4 -43 49 -94 14 -16 26 -35
26 -41 0 -7 7 -18 15 -25 8 -7 15 -19 15 -27 0 -22 -73 -86 -113 -100 -10 -3
-16 -11 -13 -18 3 -8 -6 -16 -21 -20 l-26 -6 22 -23 c11 -12 21 -27 21 -32 0
-12 30 -38 53 -47 10 -4 20 -15 23 -24 3 -10 12 -31 21 -46 14 -27 14 -28 -3
-19 -17 9 -70 16 -100 13 -15 -1 -24 -35 -17 -61 3 -11 13 -19 22 -18 32 2 51
-2 51 -12 0 -13 -56 -13 -81 0 -16 9 -19 7 -19 -9 0 -11 5 -23 11 -26 6 -4 8
-13 5 -21 -3 -8 7 -29 23 -47 16 -17 31 -42 35 -55 4 -12 16 -27 27 -32 10 -6
19 -16 19 -22 0 -7 10 -23 23 -36 l22 -25 -49 7 c-27 3 -65 15 -83 26 l-33 19
6 -27 c4 -15 15 -34 26 -42 10 -9 16 -22 13 -30 -3 -9 8 -29 25 -47 l31 -33
-38 0 c-21 0 -53 4 -71 9 l-32 10 5 -42 c7 -55 14 -77 26 -77 5 0 9 -8 9 -19
0 -23 41 -51 66 -45 14 3 25 -6 42 -36 13 -22 20 -45 17 -50 -12 -19 -81 -11
-119 15 -20 14 -39 25 -41 25 -2 0 -6 -13 -10 -30 -8 -36 32 -115 86 -170 20
-20 40 -47 44 -59 7 -22 6 -22 -30 -7 -21 9 -41 14 -45 11 -4 -2 -33 11 -65
30 l-57 35 7 -37 c9 -49 28 -86 83 -156 24 -32 42 -60 39 -63 -4 -4 -142 59
-155 71 -2 2 1 12 7 23 14 27 3 34 -24 16 -22 -14 -23 -13 -23 13 0 15 7 37
14 48 19 26 18 35 -3 35 -12 0 -14 3 -6 8 14 9 54 94 47 101 -2 3 -13 -5 -24
-17 -37 -40 -53 -21 -25 28 18 32 19 50 0 50 -11 0 -13 13 -11 63 2 34 7 71
12 81 5 15 4 17 -6 11 -10 -6 -12 5 -8 56 3 35 2 73 -3 84 -6 16 -8 13 -10
-15 -1 -19 -1 -57 1 -84 2 -41 -1 -48 -14 -43 -13 5 -14 1 -9 -25 4 -22 3 -29
-5 -24 -15 9 -15 5 -2 -29 9 -24 8 -26 -11 -20 -20 7 -20 6 -5 -24 21 -39 20
-44 -4 -38 -24 6 -25 -1 -5 -27 22 -29 18 -39 -10 -32 -32 8 -32 -4 0 -34 14
-13 25 -27 25 -32 0 -13 -27 -9 -40 7 -16 20 -30 19 -30 -1 0 -9 16 -32 35
-51 19 -19 35 -37 35 -39 0 -10 -29 -2 -40 11 -7 8 -16 15 -20 15 -10 0 26
-76 40 -85 16 -10 12 -23 -10 -30 -12 -4 -27 -1 -35 5 -22 18 -18 2 10 -47
l26 -43 -26 0 c-14 0 -25 5 -25 10 0 6 -6 10 -14 10 -17 0 -26 22 -26 63 0 18
-5 39 -10 47 -7 11 -10 -3 -10 -47 0 -70 -6 -93 -26 -93 -18 0 -18 -8 0 -42
13 -25 13 -28 0 -28 -11 0 -14 -6 -9 -22 4 -13 11 -27 16 -32 18 -20 8 -28
-25 -23 -29 5 -33 3 -29 -13 3 -10 12 -21 20 -24 19 -8 7 -26 -18 -26 -26 0
-24 -5 12 -51 38 -48 28 -69 -32 -69 -41 0 -49 -9 -24 -30 8 -7 15 -20 15 -29
0 -9 5 -22 12 -29 8 -8 8 -12 1 -12 -6 0 -16 7 -23 15 -7 8 -19 15 -26 15 -9
0 -14 13 -15 38 -1 36 -1 36 -16 -18 -9 -30 -16 -74 -16 -97 0 -24 -4 -43 -9
-43 -5 0 -4 -8 1 -19 9 -15 7 -20 -9 -24 -21 -5 -27 -31 -10 -42 16 -10 12
-23 -7 -21 -17 1 -18 -24 -21 -371 l-3 -373 6141 0 6141 0 -3 358 c-2 253 -6
363 -15 373 -6 8 -13 25 -16 39 -3 17 -5 13 -6 -15 -2 -60 -12 -71 -50 -54
-36 16 -45 33 -25 49 39 33 -22 43 -63 10 -24 -19 -53 -27 -53 -14 0 8 27 34
37 34 8 0 53 64 53 76 0 3 -16 -4 -36 -16 -41 -26 -63 -16 -45 18 6 11 11 29
11 40 0 11 7 25 15 32 18 15 10 30 -16 30 -19 0 -19 1 -3 25 9 14 14 28 10 32
-3 4 1 15 11 25 22 25 10 33 -20 13 -34 -22 -49 1 -17 25 25 19 22 54 -4 44
-23 -9 -29 14 -6 26 26 14 26 30 0 30 -23 0 -27 15 -5 24 22 8 18 28 -4 21
-14 -4 -21 0 -24 12 -4 14 -5 13 -6 -4 -1 -14 -7 -23 -17 -23 -14 0 -14 -3 -4
-15 11 -13 10 -14 -4 -9 -20 8 -21 -5 0 -34 14 -20 14 -22 0 -22 -20 0 -20
-14 -1 -30 21 -17 19 -30 -5 -30 -19 0 -19 -1 2 -22 20 -20 21 -23 5 -26 -21
-4 -22 -16 -2 -32 8 -7 15 -17 15 -23 0 -6 -10 -1 -23 11 -13 12 -28 22 -34
22 -6 0 -14 6 -16 13 -3 6 -6 -5 -6 -25 -1 -32 -4 -38 -23 -38 -17 0 -19 -3
-10 -12 9 -9 7 -14 -6 -24 -16 -11 -16 -14 1 -48 21 -45 21 -46 1 -46 -15 0
-15 -2 -1 -23 20 -30 12 -41 -46 -66 -59 -26 -60 -20 -2 15 25 14 45 30 45 35
0 18 -39 8 -69 -17 l-30 -25 -7 27 c-7 28 14 54 44 54 13 0 42 23 42 34 0 3
-15 9 -32 14 -27 7 -33 13 -33 35 1 15 -3 27 -8 27 -5 0 -7 6 -4 13 2 6 0 20
-5 30 -7 13 -5 24 6 36 15 16 15 19 1 31 -19 16 -19 39 0 46 8 4 15 10 15 15
0 5 -7 9 -15 9 -19 0 -19 19 0 44 21 28 18 46 -7 46 -17 0 -19 3 -10 12 16 16
15 28 -3 28 -10 0 -15 11 -16 33 0 17 -3 26 -6 19 -2 -6 -9 -10 -13 -7 -5 3
-19 -4 -30 -15 -28 -28 -39 -17 -14 11 14 16 15 23 7 26 -19 7 -16 30 5 42 15
9 14 10 -6 11 -22 0 -22 1 -8 22 20 28 20 38 1 38 -14 0 -13 3 1 25 15 23 15
25 -1 25 -14 0 -15 3 -5 15 10 12 10 15 -3 15 -9 0 -18 10 -20 23 l-4 22 -2
-22 c-1 -16 -6 -21 -16 -17 -8 4 -15 1 -15 -5 0 -6 5 -11 10 -11 19 0 10 -21
-12 -29 l-22 -8 22 -14 c28 -17 28 -27 0 -31 -31 -4 -33 -25 -4 -40 17 -9 23
-17 17 -27 -7 -10 -13 -10 -29 -2 -32 17 -47 14 -31 -5 7 -9 14 -25 16 -37 2
-11 9 -27 15 -34 9 -11 7 -15 -10 -20 -25 -6 -25 -7 -13 -31 17 -34 33 -94 26
-100 -3 -4 -25 4 -47 17 l-40 23 23 -41 c13 -23 36 -50 52 -60 16 -10 25 -21
19 -25 -5 -3 -25 5 -44 18 -20 13 -47 24 -62 24 -27 0 -27 -1 -8 -22 21 -22
19 -46 -3 -46 -22 0 -27 -17 -9 -34 8 -9 32 -16 51 -16 44 0 36 -11 -14 -19
-52 -9 -51 -25 5 -53 29 -15 47 -29 44 -38 -3 -9 3 -11 21 -8 22 4 24 2 18
-16 -6 -14 -19 -22 -41 -24 -39 -4 -126 18 -111 27 7 4 3 13 -9 24 -26 22 -25
46 1 55 l20 8 -20 18 c-17 16 -21 31 -21 82 0 35 -5 66 -10 69 -7 4 -9 -2 -5
-17 4 -15 1 -29 -7 -36 -9 -7 -13 -29 -12 -62 1 -33 -3 -49 -10 -47 -6 2 -12
33 -14 70 -2 37 -4 67 -5 67 -6 0 -102 -51 -113 -61 -8 -6 -14 -10 -14 -8 1
20 35 109 64 167 42 83 45 104 14 75 -24 -21 -113 -55 -122 -46 -8 9 6 33 20
33 7 0 16 10 19 23 4 12 16 27 28 32 28 13 63 78 72 135 l7 45 -31 -29 c-25
-24 -31 -26 -36 -13 -5 13 -12 14 -36 5 -17 -6 -32 -8 -34 -6 -3 3 4 24 16 47
22 45 21 78 -1 73 -7 -2 -31 0 -52 3 l-39 7 26 44 c14 24 32 62 40 84 12 35
12 40 0 40 -19 0 -19 12 2 47 10 19 14 39 9 56 -8 35 -18 34 -39 -3 -25 -42
-51 -41 -43 3 4 17 9 54 13 81 5 42 4 48 -10 43 -21 -8 -30 3 -13 17 17 14 61
124 53 132 -4 4 -13 1 -22 -6 -23 -19 -30 -4 -11 24 21 33 20 49 -3 43 -16 -4
-20 3 -25 41 -3 24 -6 61 -6 81 0 21 -6 46 -14 56 -13 18 -14 18 -19 -1 -4
-10 -11 -47 -16 -82 -6 -35 -21 -83 -34 -106 -23 -41 -23 -43 -6 -67 10 -13
19 -40 21 -59 l3 -35 -42 2 c-44 2 -59 -15 -23 -24 11 -3 20 -12 20 -20 0 -7
7 -24 14 -36 8 -12 18 -42 21 -67 l6 -45 -25 30 c-20 23 -28 27 -38 17 -6 -6
-21 -12 -31 -12 -16 0 -17 -3 -7 -15 10 -12 9 -15 -5 -15 -14 0 -15 -6 -10
-33 16 -73 34 -102 75 -120 50 -21 51 -29 3 -27 -59 3 -73 1 -73 -10 0 -6 11
-16 25 -22 13 -6 27 -19 30 -30 4 -10 12 -18 20 -18 7 0 16 -7 19 -16 15 -38
3 -35 -37 10 -37 42 -47 48 -69 43 -15 -4 -34 -14 -43 -23 -14 -15 -13 -19 13
-48 15 -18 34 -46 41 -64 7 -18 17 -32 22 -32 16 0 10 -17 -8 -24 -42 -15 -64
-36 -88 -80 -30 -56 -30 -52 -5 -59 26 -7 26 -39 -1 -63 -12 -10 -27 -31 -35
-47 -13 -24 -13 -28 1 -33 10 -4 13 -13 10 -25 -5 -16 -1 -19 29 -19 20 0 36
-5 36 -11 0 -6 7 -9 15 -5 11 4 15 -1 15 -19 0 -31 15 -32 31 -4 7 14 14 18
21 11 14 -14 -8 -52 -32 -52 -23 0 -72 -21 -82 -35 -5 -6 -11 -5 -18 5 -7 12
-15 13 -39 4 l-29 -12 5 34 c5 31 4 34 -21 34 -34 0 -33 5 9 42 32 27 34 32
19 43 -14 10 -15 17 -6 45 16 44 16 43 -18 25 -36 -19 -40 -19 -40 -1 0 8 11
24 25 37 33 32 31 40 -5 32 -37 -7 -40 4 -5 17 l26 10 -21 27 -20 28 20 59
c23 64 20 78 -9 52 -18 -17 -19 -16 -26 13 -3 17 -3 36 1 42 4 7 8 22 10 35 1
12 5 31 9 43 4 12 2 21 -4 21 -6 0 -11 7 -11 15 0 8 -5 15 -11 15 -6 0 -9 6
-6 14 5 12 -11 26 -28 26 -3 0 -3 -28 -3 -62 2 -48 -1 -62 -11 -60 -10 2 -11
-4 -6 -25 16 -55 12 -78 -13 -77 -20 1 -21 -1 -7 -16 23 -26 19 -47 -5 -25
-11 10 -20 13 -20 7 0 -16 -27 -15 -33 1 -3 6 -6 2 -6 -10 -1 -12 -5 -24 -10
-27 -5 -3 -12 -26 -15 -51 -7 -41 -10 -45 -36 -45 -32 0 -48 15 -25 24 11 4
45 65 45 80 0 2 -13 1 -30 -2 -34 -5 -35 -3 -16 43 l15 35 -37 0 c-24 0 -32 3
-24 9 7 4 24 31 37 59 l24 51 -32 -6 c-31 -6 -31 -5 -16 13 9 10 20 29 24 42
6 21 4 22 -22 16 -23 -5 -26 -4 -15 7 6 7 12 25 12 41 0 21 -4 26 -17 21 -13
-5 -15 -1 -10 23 3 16 0 39 -7 52 -12 22 -14 18 -25 -47 -11 -61 -16 -71 -33
-71 -16 0 -18 -3 -10 -13 6 -7 11 -22 10 -32 -1 -11 2 -31 6 -43 7 -22 6 -23
-16 -17 -70 20 -69 22 -20 -44 17 -23 22 -36 14 -39 -16 -5 -15 -39 1 -45 6
-3 3 -6 -9 -6 -11 -1 -26 5 -33 11 -11 11 -11 9 -1 -12 9 -16 10 -25 2 -28 -7
-2 -1 -21 14 -49 35 -67 32 -73 -28 -48 -14 6 -15 2 -8 -30 4 -19 13 -42 19
-49 23 -27 -7 -26 -39 1 l-33 27 8 -25 c4 -13 14 -31 21 -40 13 -15 10 -29 -7
-29 -16 0 -40 117 -28 147 6 15 4 25 -5 30 -21 13 -25 37 -10 64 19 34 17 39
-12 39 -27 0 -27 0 -20 57 4 31 12 63 18 70 8 10 6 13 -11 13 -28 0 -38 27
-17 43 9 7 18 24 20 39 1 15 7 33 13 40 5 7 10 30 10 51 1 33 -1 36 -14 25
-14 -11 -53 -22 -53 -14 0 2 7 20 15 40 l15 36 -30 -6 c-35 -7 -36 -3 -10 51
25 52 25 53 -7 47 -27 -5 -27 -4 -10 15 24 27 23 63 -2 63 -15 0 -21 8 -24 38
l-4 37 -2 -40 c-1 -22 -10 -51 -20 -64 -14 -18 -18 -35 -14 -59 6 -32 4 -34
-17 -27 -21 7 -22 5 -15 -26 6 -27 5 -31 -9 -26 -11 5 -16 1 -16 -13 0 -13
-11 -25 -32 -34 -44 -18 -51 -11 -28 27 11 18 20 44 20 60 0 23 -4 27 -27 27
-16 0 -38 3 -50 6 -22 6 -22 6 12 75 38 74 43 99 21 99 -12 0 -11 8 5 45 18
40 18 47 6 66 -15 20 -15 20 -33 -10 -10 -17 -26 -31 -36 -31 -19 0 -18 20 3
78 5 13 9 37 9 53 0 26 -3 29 -20 24 -11 -4 -20 -2 -20 4 0 6 4 11 9 11 11 0
64 130 57 138 -3 3 -15 -3 -26 -13 -30 -27 -34 -13 -9 29 24 41 21 53 -10 36
-20 -10 -21 -9 -21 65 0 51 -5 86 -17 108 l-16 32 -13 -55 c-7 -30 -13 -66
-14 -80 0 -14 -11 -47 -25 -74 -24 -49 -24 -49 -4 -74 10 -14 19 -40 19 -59 0
-35 0 -35 -40 -31 -28 2 -40 0 -40 -9 0 -7 6 -13 13 -13 18 0 57 -89 57 -130
l-1 -35 -20 28 c-20 26 -22 27 -40 11 -10 -9 -23 -13 -28 -9 -15 9 -14 -8 1
-23 9 -9 7 -12 -9 -12 -22 0 -22 -1 -6 -53 8 -28 19 -53 24 -55 5 -2 9 -9 9
-16 0 -7 14 -17 32 -22 52 -15 45 -32 -10 -26 -59 5 -75 -11 -33 -32 16 -9 32
-25 36 -36 3 -11 13 -20 21 -20 8 0 14 -4 14 -9 0 -5 3 -18 6 -28 4 -10 -16 7
-44 37 l-50 55 -36 -19 c-41 -22 -45 -35 -15 -62 11 -10 29 -38 40 -61 11 -24
24 -43 29 -43 6 0 10 -4 10 -10 0 -5 -7 -10 -15 -10 -28 0 -76 -38 -95 -76
-24 -46 -25 -64 -5 -64 29 0 28 -30 -1 -61 -30 -31 -47 -38 -38 -15 3 7 -1 16
-9 19 -19 7 -28 -36 -20 -87 5 -31 3 -35 -10 -30 -14 5 -15 1 -7 -28 6 -18 10
-44 10 -57 0 -19 -4 -22 -21 -18 -19 5 -20 4 -5 -12 16 -18 21 -41 9 -41 -3 0
-15 8 -27 18 -18 16 -18 14 3 -21 21 -34 21 -38 6 -44 -15 -5 -15 -8 6 -24
l24 -19 -22 0 c-25 0 -28 -14 -14 -53 8 -21 6 -26 -15 -36 -23 -10 -24 -9 -24
24 0 18 5 37 12 41 8 5 4 10 -10 15 -15 6 -22 20 -28 56 -4 26 -10 57 -15 68
-7 19 -8 19 -8 -2 -1 -13 -4 -24 -8 -24 -5 -1 -20 -3 -35 -5 l-28 -3 15 36
c19 46 20 43 -17 43 -18 0 -28 4 -23 8 8 6 55 96 55 106 0 1 -15 0 -32 -2 -32
-5 -32 -4 -17 14 9 11 22 29 28 41 11 22 10 22 -21 17 -20 -4 -28 -2 -21 3 7
5 16 23 19 41 5 26 4 31 -8 27 -12 -5 -17 6 -23 47 -4 29 -10 44 -12 33 -2
-11 -7 -27 -10 -35 -8 -18 -14 -49 -14 -72 0 -11 -8 -18 -20 -18 -11 0 -17 -5
-14 -10 3 -6 8 -31 10 -56 4 -48 4 -48 -52 -27 -7 3 -13 2 -13 -3 0 -12 44
-74 53 -74 4 0 7 -4 7 -10 0 -5 -7 -10 -15 -10 -18 0 -20 -21 -2 -39 10 -11 7
-12 -16 -7 -26 6 -27 5 -17 -14 9 -16 8 -20 -6 -20 -13 0 -14 -3 -4 -15 18
-22 50 -88 45 -93 -2 -3 -18 1 -34 7 -27 12 -33 10 -77 -24 -27 -20 -57 -47
-67 -61 -18 -23 -47 -33 -47 -15 0 5 -9 11 -20 14 -13 3 -18 10 -14 21 8 21
40 21 48 -1 9 -23 23 -7 74 85 41 73 43 83 8 57 -20 -15 -96 -21 -96 -8 0 4
15 23 34 43 18 19 36 50 39 68 6 31 6 32 -21 26 -15 -4 -41 -15 -58 -25 -36
-22 -44 -23 -44 -9 0 6 7 10 15 10 8 0 24 18 35 40 22 44 16 51 -19 21 -24
-21 -46 -19 -55 6 -9 22 1 28 19 13 12 -10 16 -8 24 13 10 27 33 39 56 31 10
-4 18 3 25 21 7 17 15 25 25 22 8 -4 16 2 20 13 4 11 12 26 19 33 8 7 17 28
21 46 l7 34 -25 -19 c-14 -11 -31 -29 -38 -42 -7 -13 -15 -18 -19 -12 -4 7
-19 5 -43 -5 -55 -23 -71 -20 -44 8 12 13 27 21 33 19 6 -2 14 7 17 19 4 14
11 20 21 16 10 -4 19 7 30 39 17 50 10 55 -24 19 -28 -29 -85 -34 -116 -9 -14
12 -15 14 -3 11 9 -3 22 0 28 6 9 9 14 9 20 -2 7 -11 11 -9 21 9 6 12 14 20
16 17 7 -7 54 38 54 52 0 6 -15 11 -32 11 -18 0 -44 9 -58 20 -14 11 -30 20
-37 20 -23 0 -25 22 -4 36 15 11 19 22 15 38 -4 18 -1 25 15 29 13 3 22 14 23
29 2 32 3 39 16 71 7 16 12 49 12 75 l0 46 -30 -29 c-26 -24 -34 -27 -56 -19
-22 7 -27 16 -29 47 -1 20 1 37 6 37 10 0 51 71 45 78 -3 2 1 17 9 33 24 46
20 59 -20 59 -42 0 -43 5 -8 42 31 33 24 47 -14 27 -47 -23 -49 -23 -25 3 12
13 22 32 22 42 0 17 -1 17 -26 1 -33 -21 -39 -15 -26 27 21 68 23 115 6 129
-31 26 -42 -11 -40 -136 2 -117 0 -122 -36 -116 -14 2 -8 -17 7 -23 22 -8 18
-32 -6 -50 -19 -13 -20 -19 -12 -43 6 -15 11 -37 10 -48 0 -11 4 -33 8 -50 8
-29 8 -30 -12 -12 -28 24 -31 22 -28 -18 4 -38 11 -55 25 -55 15 0 50 -33 50
-47 0 -19 -20 -26 -37 -11 -13 10 -17 10 -20 1 -3 -8 -24 -13 -54 -13 -31 0
-48 -4 -44 -10 3 -6 15 -10 26 -10 10 0 19 -7 19 -15 0 -8 5 -15 11 -15 19 0
39 -28 39 -56 0 -20 3 -24 13 -17 14 11 57 24 57 16 0 -16 -25 -45 -46 -53
-13 -5 -24 -16 -24 -24 0 -8 -16 -23 -35 -35 -22 -13 -33 -25 -29 -35 8 -20
41 -26 55 -10 19 23 29 16 18 -13 -16 -43 -49 -73 -81 -73 -27 0 -28 2 -29 48
l-2 47 -6 -59 c-5 -47 -12 -63 -34 -82 -34 -29 -62 -33 -49 -7 5 10 12 30 16
46 5 23 3 27 -14 27 -25 0 -25 5 0 37 11 15 18 29 15 32 -4 3 -10 -1 -15 -9
-15 -24 -25 -1 -23 51 0 27 -3 46 -8 43 -5 -3 -10 12 -10 33 -1 25 -4 13 -10
-32 -4 -38 -6 -92 -3 -120 12 -114 -1 -174 -50 -231 -38 -44 -56 -42 -32 5 23
43 21 53 -9 39 -36 -16 -39 -6 -16 41 27 53 26 59 -6 53 -27 -5 -27 -4 -10 15
23 26 23 71 0 69 -14 -1 -17 6 -15 39 2 30 0 36 -7 25 -6 -8 -11 -29 -11 -46
0 -17 -9 -43 -20 -57 -11 -14 -16 -28 -12 -31 11 -7 3 -56 -9 -56 -5 0 -9 5
-9 11 0 5 -4 8 -8 5 -5 -3 -6 -20 -4 -38 5 -30 3 -32 -12 -19 -14 12 -16 10
-16 -25 1 -22 7 -70 14 -109 15 -76 13 -97 -5 -46 -9 24 -14 29 -20 19 -7 -11
-11 -10 -19 2 -13 21 -14 -39 0 -74 9 -26 9 -26 -36 -26 -28 0 -43 4 -39 10 3
6 12 10 19 10 7 0 18 12 25 26 12 28 15 28 -38 7 -10 -5 -12 1 -6 28 4 19 12
39 17 46 7 8 1 12 -18 15 -25 3 -26 5 -13 18 8 8 19 24 23 35 6 16 5 18 -5 7
-7 -6 -17 -12 -23 -12 -5 0 -6 3 -3 7 4 3 2 12 -4 19 -8 10 -8 22 0 45 15 42
14 49 -4 43 -11 -5 -15 2 -16 27 -1 19 -5 3 -9 -35 -7 -72 -5 -127 6 -184 9
-47 -12 -108 -58 -164 -33 -40 -36 -47 -21 -53 10 -3 34 -19 53 -36 l35 -30
-30 2 c-47 2 -49 0 -30 -21 16 -18 16 -20 2 -20 -23 0 -21 -16 3 -40 19 -19
19 -21 3 -27 -10 -4 -19 -1 -22 8 -2 7 -17 26 -32 42 -16 16 -26 34 -22 42 3
8 1 15 -5 15 -6 0 -8 8 -5 18 2 10 -3 24 -11 31 -14 12 -16 10 -17 -13 -1 -25
-3 -36 -9 -53 -1 -5 -2 -16 -1 -25 2 -12 -4 -15 -21 -11 -22 4 -22 3 5 -19 30
-27 37 -72 11 -86 -14 -8 -14 -10 0 -21 25 -21 19 -31 -16 -24 l-33 6 35 -37
35 -37 -29 11 c-33 12 -44 7 -27 -14 9 -11 9 -15 0 -18 -9 -3 -6 -11 9 -26 12
-12 22 -26 22 -31 0 -11 -38 -2 -46 10 -3 5 -14 9 -25 9 -23 0 -25 15 -4 24
19 7 19 26 0 26 -20 0 -19 16 1 24 26 10 -4 39 -33 31 -30 -7 -29 2 2 27 33
26 32 35 -5 30 -36 -5 -36 -3 -9 42 22 38 20 43 -12 26 -24 -13 -26 7 -4 36
21 28 18 35 -11 28 l-26 -7 17 33 c18 35 14 50 -10 30 -25 -20 -28 -5 -11 46
19 56 20 78 5 68 -9 -5 -10 1 -5 20 3 14 2 26 -3 26 -13 0 -22 72 -9 87 8 10
7 13 -5 13 -9 0 -18 10 -20 23 -4 18 -4 17 -6 -6 0 -18 -5 -26 -12 -21 -8 5
-8 1 0 -14 16 -29 14 -37 -6 -21 -15 13 -16 11 -9 -13 4 -18 2 -28 -5 -28 -8
0 -8 -4 -1 -13 6 -7 16 -26 22 -41 9 -25 9 -27 -4 -17 -12 10 -16 8 -21 -11
-5 -13 -3 -24 4 -26 6 -2 11 -11 11 -21 0 -9 5 -22 12 -29 6 -6 8 -15 4 -19
-4 -4 -12 -1 -17 7 -7 10 -8 -1 -3 -35 3 -27 10 -54 15 -60 21 -22 6 -25 -26
-5 -27 17 -34 18 -29 6 3 -9 1 -16 -5 -16 -20 0 -11 -30 12 -39 13 -5 29 -17
37 -27 14 -18 14 -18 -5 -3 -24 19 -99 34 -89 17 4 -6 1 -9 -6 -6 -7 2 -14 21
-16 43 -2 21 -8 43 -14 49 -5 5 -10 28 -11 51 0 22 -4 49 -9 60 -5 14 -8 2 -7
-35 1 -68 -7 -84 -34 -70 -22 12 -24 3 -5 -23 16 -20 9 -66 -11 -74 -10 -4
-11 -9 -2 -19 9 -11 7 -14 -11 -14 -16 0 -21 -4 -16 -16 4 -9 1 -23 -5 -30 -9
-11 -8 -15 4 -20 9 -3 20 -3 26 0 6 4 8 -7 4 -29 -4 -27 -2 -35 10 -35 20 0
34 -70 15 -81 -7 -5 -106 -9 -220 -9 -201 0 -208 1 -208 20 0 22 -20 26 -52 9
-37 -20 -29 -2 12 25 22 14 40 30 40 35 0 16 -44 -1 -72 -27 -29 -27 -35 -27
-38 -2 -5 36 1 50 27 56 32 8 57 30 49 43 -3 4 -18 11 -33 14 -25 5 -28 10
-30 47 0 22 -6 46 -12 54 -7 9 -6 19 5 35 12 17 13 26 5 34 -14 14 -15 47 -1
47 6 0 10 5 10 10 0 6 -7 10 -15 10 -13 0 -12 7 5 41 l21 41 -20 5 c-24 6 -26
14 -9 31 9 9 7 12 -11 12 -19 0 -22 4 -18 21 11 43 -3 50 -36 19 -38 -35 -60
-40 -29 -7 26 27 28 37 7 37 -19 0 -19 9 2 32 15 17 15 18 0 18 -21 0 -22 14
-2 30 19 16 19 30 0 30 -12 0 -13 4 -5 19 14 27 13 44 -2 35 -10 -6 -10 -4 0
8 11 13 7 17 -28 26 -41 10 -51 4 -25 -18 18 -15 10 -31 -10 -23 -19 7 -19
-11 0 -27 21 -17 19 -30 -5 -30 -26 0 -26 -24 2 -42 30 -20 16 -41 -17 -26
-36 16 -39 6 -12 -45 l25 -45 -25 -7 c-24 -6 -24 -7 -9 -30 9 -13 16 -33 16
-44 0 -11 4 -23 10 -26 15 -9 12 -25 -5 -31 -8 -3 -28 4 -45 16 -16 12 -30 18
-30 15 0 -12 43 -70 69 -92 22 -19 23 -22 8 -23 -11 0 -30 9 -44 20 -24 19
-73 28 -73 13 0 -3 7 -14 16 -24 17 -19 11 -39 -12 -39 -21 0 -17 -28 5 -40
11 -5 32 -10 48 -10 22 0 25 -2 13 -10 -8 -5 -27 -10 -42 -10 -15 0 -30 -5
-33 -11 -5 -7 -14 -4 -26 7 -14 13 -19 31 -19 73 0 31 -5 63 -10 71 -7 11 -10
8 -10 -16 0 -17 -3 -34 -7 -38 -4 -4 -9 -26 -10 -48 -2 -23 -8 -45 -14 -49 -7
-4 -9 -17 -6 -29 3 -13 0 -23 -9 -27 -19 -7 -18 -32 2 -54 19 -21 11 -39 -16
-39 -17 0 -18 -4 -10 -26 6 -14 10 -30 10 -35 0 -5 -43 -9 -96 -9 -62 0 -93 4
-89 10 4 6 -7 15 -24 21 -30 10 -39 28 -24 43 12 12 12 35 0 33 -13 -2 -10 35
3 43 4 3 11 16 15 29 7 22 5 23 -20 17 -30 -8 -30 -5 -9 78 8 35 -11 34 -48
-1 -50 -48 -30 -4 22 48 28 27 50 58 50 67 0 10 5 23 11 29 8 8 8 13 -1 18 -6
4 -38 -11 -71 -34 -40 -28 -59 -36 -59 -26 0 8 9 24 21 36 24 24 37 83 19 94
-8 5 -5 11 9 22 27 18 27 31 -1 43 -15 6 -17 9 -7 9 15 1 49 31 49 43 0 3 -20
3 -45 0 -47 -5 -60 8 -27 27 14 9 13 10 -10 11 -18 0 -28 5 -28 15 0 8 6 12
14 9 9 -3 16 4 20 22 8 31 1 43 -16 26 -14 -14 -32 -16 -24 -3 4 5 1 11 -5 13
-8 3 -6 13 7 33 13 21 15 30 6 33 -9 3 -7 12 8 32 11 15 24 40 30 55 l10 27
-32 -27 c-29 -24 -33 -26 -36 -10 -2 9 1 22 7 28 15 15 14 58 -1 54 -7 -1 -11
5 -9 13 2 8 4 33 4 55 -1 22 3 45 8 51 7 8 0 13 -21 16 -26 4 -30 2 -30 -19 0
-15 -4 -22 -11 -17 -8 5 -8 1 0 -14 15 -29 14 -45 -4 -38 -19 7 -19 -4 0 -30
16 -23 11 -36 -11 -27 -19 7 -18 -11 1 -27 21 -18 8 -31 -23 -24 l-27 7 28
-30 c15 -16 27 -32 27 -36 0 -12 -23 -7 -41 9 -12 11 -19 12 -24 4 -4 -6 11
-28 34 -50 43 -41 41 -64 -3 -29 -14 11 -26 16 -26 11 0 -6 3 -12 8 -14 9 -4
42 -66 42 -80 0 -6 -13 -8 -30 -6 -37 6 -38 -3 -4 -48 l26 -34 -26 0 c-14 0
-26 5 -26 10 0 6 -6 10 -13 10 -19 0 -37 43 -37 88 -1 31 -2 34 -11 19 -6 -10
-8 -34 -4 -53 7 -42 -1 -74 -21 -74 -18 0 -18 -20 2 -48 14 -20 14 -22 0 -22
-20 0 -20 -7 -1 -44 l15 -28 -37 7 -36 7 16 -26 c22 -32 21 -36 -3 -36 -27 0
-25 -9 11 -48 38 -40 27 -62 -32 -62 -41 0 -49 -9 -24 -30 9 -7 13 -15 11 -18
-3 -2 0 -14 6 -26 11 -20 10 -20 -9 -3 -11 9 -25 17 -31 17 -7 0 -12 15 -13
33 0 29 -1 30 -9 9 l-10 -22 -20 20 c-11 11 -26 20 -33 20 -7 0 -23 9 -34 19
-18 17 -19 24 -10 60 9 31 15 40 28 36 9 -3 22 1 28 9 11 13 8 16 -16 22 -71
16 -69 12 -53 79 5 24 5 44 0 50 -5 7 -8 43 -5 81 l4 69 -14 -55 c-10 -37 -13
-77 -9 -120 7 -75 0 -86 -55 -92 l-34 -3 36 -40 c20 -22 37 -44 37 -48 0 -4
-16 -5 -36 -1 -36 7 -36 6 -23 -17 7 -13 26 -36 43 -51 l31 -27 -37 -15 c-21
-9 -42 -16 -47 -16 -20 0 -18 -29 5 -51 13 -12 24 -26 24 -30 0 -11 -28 -19
-45 -13 -13 5 -13 9 -3 22 11 13 9 15 -14 10 -16 -3 -28 -1 -28 3 0 5 -13 15
-30 24 -36 18 -40 38 -6 29 15 -3 29 1 40 11 22 23 11 36 -24 28 -18 -3 -36 0
-45 7 -17 14 -21 45 -4 35 6 -4 16 1 24 11 17 25 18 39 2 40 -6 0 -18 2 -25 2
-21 3 -10 45 12 48 45 6 64 15 70 30 6 15 1 16 -39 11 -37 -6 -46 -4 -55 13
-14 27 -13 32 8 21 14 -8 26 -2 56 25 20 19 34 38 31 44 -3 6 -16 -1 -29 -14
-15 -17 -26 -22 -36 -16 -8 5 -17 7 -21 4 -4 -2 -15 8 -24 22 -17 26 -17 27
21 63 l37 36 -26 3 c-15 2 -27 5 -27 8 0 3 11 27 25 54 26 52 24 60 -9 35 -28
-21 -33 -19 -28 15 2 17 13 35 23 41 25 13 24 27 -3 56 -16 18 -19 26 -10 35
8 8 7 15 -6 24 -15 12 -15 15 -2 24 13 8 13 11 1 19 -9 6 -12 19 -7 42 7 42
-9 76 -19 38 -3 -13 -4 -49 -3 -79 3 -48 1 -55 -14 -52 -21 3 -22 -2 -6 -31
13 -24 19 -77 8 -77 -3 0 -11 5 -18 12 -6 6 -14 9 -18 6 -3 -4 6 -17 20 -29
l26 -23 -20 -21 c-19 -20 -19 -24 -6 -51 10 -18 12 -30 5 -34 -5 -4 -11 -27
-12 -52 -2 -46 -6 -49 -40 -20 -24 21 -30 11 -9 -19 9 -13 17 -28 17 -34 0 -5
4 -25 9 -43 5 -22 4 -38 -4 -47 -9 -11 -10 -19 -1 -28 14 -17 4 -27 -26 -27
-14 0 -23 -6 -23 -15 0 -15 -46 -32 -58 -21 -7 8 51 66 66 66 5 0 12 8 15 18
2 9 8 25 12 34 5 13 2 15 -14 11 -11 -3 -32 -2 -46 1 l-26 7 21 28 c30 44 27
64 -10 56 -48 -11 -31 32 23 60 28 14 36 39 10 31 -23 -7 -86 14 -65 21 11 4
42 54 42 68 0 3 -13 5 -30 5 -34 0 -34 0 -18 35 8 18 17 24 30 19 12 -3 18 0
18 10 0 8 3 23 7 33 5 14 4 16 -8 7 -13 -10 -59 -25 -59 -20 0 15 24 66 31 66
5 0 9 7 9 15 0 8 7 15 15 15 11 0 13 8 8 33 -3 17 -7 33 -8 35 -2 2 -19 -11
-39 -28 -36 -32 -36 -32 -36 -8 0 13 6 32 14 43 7 11 17 31 21 45 8 25 8 25
-14 6 -11 -11 -24 -17 -27 -13 -8 7 15 77 31 97 7 8 16 26 20 40 8 25 8 25
-14 6 -21 -19 -21 -19 -21 3 0 27 25 77 42 85 7 3 -2 3 -19 0 -32 -5 -47 9
-20 20 9 3 7 8 -5 19 -16 13 -22 61 -7 51 4 -2 11 10 14 28 4 18 12 39 18 46
9 11 4 12 -28 6 l-38 -7 21 35 c26 41 27 48 8 48 -9 0 -12 7 -9 19 3 10 -2 21
-10 24 -8 3 -14 19 -15 37 -1 47 -12 50 -12 3 0 -71 -10 -104 -30 -98 -15 5
-17 1 -13 -17 3 -13 11 -36 18 -53 15 -35 9 -95 -10 -95 -7 0 -18 7 -25 15
-22 26 -28 16 -11 -19 9 -18 21 -31 28 -29 7 3 11 -4 10 -16 -1 -24 -2 -24
-28 -11 -27 15 -25 -11 5 -58 49 -76 37 -129 -15 -64 -16 21 -20 22 -16 7 3
-11 9 -33 12 -50 4 -16 9 -39 12 -50 5 -19 5 -19 -14 -2 -11 9 -23 17 -27 17
-11 0 4 -41 26 -73 25 -36 19 -43 -15 -17 -14 11 -28 20 -31 20 -16 0 -2 -32
29 -70 19 -23 35 -50 35 -60 0 -18 -57 -70 -76 -70 -5 0 -15 -9 -22 -20 -10
-17 -7 -24 26 -57 20 -20 42 -47 48 -59 11 -21 10 -22 -28 -16 -27 3 -43 1
-48 -8 -12 -19 -1 -40 20 -40 11 0 22 -5 26 -12 5 -8 -3 -9 -29 -5 -36 6 -37
5 -30 -21 7 -30 68 -120 92 -139 9 -6 13 -14 9 -18 -9 -9 -48 4 -48 16 0 13
-21 33 -37 36 -7 2 -10 -4 -7 -12 4 -8 1 -15 -5 -15 -11 0 -3 -31 11 -41 4 -3
5 -20 2 -38 -6 -28 -10 -32 -30 -27 -22 6 -23 4 -17 -26 3 -18 12 -44 20 -58
18 -35 16 -42 -8 -38 -19 3 -22 -2 -23 -32 -1 -22 7 -50 22 -74 17 -27 22 -44
15 -54 -13 -22 -28 -15 -28 13 0 37 -18 49 -40 25 -10 -11 -24 -20 -32 -20
-20 0 -15 31 6 37 32 8 35 33 3 33 l-27 0 30 26 c17 15 22 23 13 20 -22 -7
-23 12 -3 38 18 24 19 36 3 36 -7 0 -20 5 -28 10 -13 8 -12 11 5 24 17 13 18
17 5 25 -12 8 -13 16 -3 41 10 27 9 30 -7 30 -24 0 -36 18 -21 33 15 15 14 37
-2 37 -9 0 -14 19 -16 63 -1 34 -6 89 -10 122 l-8 60 -2 -67 c-1 -55 -4 -68
-17 -68 -12 0 -14 -5 -9 -18 18 -41 18 -62 0 -62 -16 0 -16 -2 -1 -25 15 -23
15 -25 -6 -39 l-22 -16 23 -24 c21 -22 22 -25 5 -34 -11 -6 -25 -6 -38 0 -16
7 -36 3 -81 -17 -63 -26 -55 -16 30 38 27 18 51 40 53 49 5 27 -66 1 -110 -41
-21 -19 -39 -32 -39 -28 -2 12 -6 22 -13 38 -4 8 -2 28 3 42 9 22 17 27 46 27
28 0 37 5 44 23 5 12 12 21 17 20 5 -2 9 2 9 9 0 7 -22 19 -49 26 -47 14 -48
14 -43 48 3 18 1 36 -4 40 -6 3 -8 13 -5 21 3 8 -1 24 -9 36 -20 28 -19 33 6
58 20 20 20 21 2 41 -20 22 -19 59 3 71 20 12 17 27 -6 27 -26 0 -25 5 5 64
27 53 20 82 -17 73 -22 -6 -23 0 -3 19 23 23 18 35 -10 28 -24 -6 -25 -5 -25
47 -1 47 -2 52 -14 37 -7 -10 -16 -15 -19 -12 -3 4 -20 -8 -37 -25 -17 -17
-36 -31 -41 -31 -17 0 -9 18 17 39 27 21 27 55 0 45 -21 -8 -8 34 15 49 26 16
24 27 -6 27 -31 0 -31 7 -4 36 27 29 19 58 -13 48 l-23 -6 21 23 c12 13 24 32
27 41 7 19 -8 34 -18 18 -3 -5 -11 -10 -17 -10 -6 0 -1 11 12 25 l23 25 -26 0
c-22 0 -26 5 -30 38 l-4 37 -1 -38 c-2 -35 -4 -37 -23 -27 -30 17 -36 4 -11
-23 25 -26 20 -37 -15 -37 -30 0 -29 -14 2 -38 31 -25 32 -42 1 -42 -13 0 -29
-6 -35 -14 -9 -11 -6 -18 15 -35 15 -12 31 -21 35 -21 12 0 11 -11 -1 -30 -8
-13 -14 -13 -44 4 -47 25 -63 18 -37 -16 12 -15 21 -30 20 -35 -5 -29 4 -52
22 -58 16 -5 18 -10 8 -21 -6 -8 -22 -14 -35 -14 -29 0 -31 -20 -5 -44 11 -10
17 -24 14 -32 -2 -7 2 -28 11 -45 36 -73 8 -90 -63 -38 -49 35 -60 34 -30 -4
11 -15 17 -31 14 -37 -3 -5 0 -10 8 -10 8 0 18 -12 21 -26 4 -14 12 -24 18
-22 11 4 58 -33 58 -46 0 -16 -39 -3 -82 27 -35 26 -54 33 -77 29 -38 -5 -38
-9 -5 -43 l27 -28 -37 -21 c-20 -12 -36 -25 -36 -29 0 -17 41 -43 67 -43 90
-1 92 -24 3 -34 -43 -5 -60 -11 -60 -21 0 -8 9 -17 20 -20 11 -3 20 -9 20 -14
0 -11 80 -45 96 -41 7 1 9 -8 6 -24 -5 -25 -3 -27 24 -21 27 5 30 3 29 -19 0
-14 -7 -29 -15 -34 -39 -25 -176 2 -208 40 -38 45 -46 62 -32 70 7 4 9 13 6
19 -4 6 -10 59 -12 117 -5 105 -22 188 -23 117 -1 -18 -6 -33 -11 -33 -7 0 -8
-13 -4 -37 6 -31 5 -35 -10 -30 -13 5 -15 2 -10 -21 4 -15 11 -33 17 -40 8
-10 5 -14 -11 -19 -27 -7 -27 -8 -2 -48 17 -28 18 -34 5 -39 -8 -3 -22 -3 -30
0 -20 8 -19 -15 1 -37 8 -9 16 -23 18 -31 1 -7 5 -19 10 -27 7 -11 2 -13 -26
-7 l-36 6 14 -37 c17 -49 17 -63 0 -63 -11 0 -14 -11 -13 -42 1 -28 -3 -47
-13 -56 -13 -10 -11 -15 13 -35 15 -12 27 -26 27 -30 0 -13 -55 5 -73 25 -14
14 -17 26 -11 46 4 15 8 34 10 42 1 8 6 25 9 38 11 35 -4 26 -21 -13 -16 -39
-33 -47 -28 -12 13 93 12 105 -6 100 -10 -3 -21 0 -24 6 -4 6 -11 11 -16 11
-13 0 -6 -26 14 -45 14 -14 15 -20 4 -26 -18 -12 -66 -11 -73 1 -4 6 -12 4
-21 -5 -16 -15 -74 -21 -74 -7 1 15 36 48 63 60 15 6 27 18 27 27 0 8 9 15 20
15 11 0 20 4 20 9 0 4 -18 3 -40 -2 -22 -6 -42 -8 -45 -5 -10 10 14 48 30 48
8 0 15 5 15 12 0 6 8 20 17 31 17 18 17 19 -12 16 -38 -5 -44 20 -15 61 27 38
20 51 -22 39 -17 -5 -33 -7 -36 -5 -2 2 8 23 22 45 l26 41 -30 0 c-31 0 -41
16 -15 26 20 8 19 44 0 44 -24 0 -28 25 -11 58 8 16 12 33 8 36 -3 4 -7 24 -8
44 -4 79 -17 183 -24 187 -4 2 -8 -17 -8 -43 -4 -116 -8 -146 -22 -150 -8 -3
-31 -18 -51 -33 -20 -16 -40 -29 -44 -29 -4 0 -24 -13 -45 -30 l-37 -29 5 24
c2 14 8 25 13 25 5 0 9 8 9 19 0 10 9 21 20 24 12 3 20 14 20 25 0 12 4 24 10
27 16 10 11 40 -11 69 -20 26 -20 26 0 26 11 0 27 10 36 22 14 21 14 24 -2 35
-9 7 -25 13 -36 13 -26 0 -12 16 20 23 17 3 35 18 46 36 10 17 17 31 15 31 -2
0 -23 -6 -49 -14 -35 -11 -50 -11 -67 -2 -17 9 -20 14 -10 24 7 7 18 12 25 12
7 0 13 5 13 11 0 7 -15 10 -40 7 -36 -3 -40 -1 -40 19 0 20 4 22 25 17 21 -5
25 -3 25 16 0 12 5 30 10 41 13 24 -7 26 -36 4 -10 -8 -25 -15 -33 -15 -11 0
-11 3 0 17 11 13 11 17 2 20 -19 7 -16 21 13 59 26 33 26 34 5 34 -20 0 -29
15 -13 22 18 8 91 138 77 138 -2 0 -22 -16 -45 -35 -23 -19 -46 -35 -51 -35
-15 0 -10 33 11 73 27 50 26 70 -1 62 -20 -7 -21 -4 -16 26 3 19 9 47 13 63 5
21 4 27 -5 22 -17 -11 -14 31 5 59 15 24 15 25 -3 25 -17 0 -18 6 -12 76 3 42
3 91 -2 108 -7 30 -7 30 -8 -11 -1 -23 -5 -43 -10 -45 -6 -2 -6 -21 -2 -45 11
-58 3 -97 -15 -82 -12 9 -14 5 -14 -26 0 -28 -3 -36 -14 -32 -12 5 -11 -3 4
-39 21 -47 17 -53 -18 -28 -19 13 -22 13 -22 0 0 -8 5 -18 10 -21 6 -3 17 -20
26 -37 l16 -31 -31 6 c-37 8 -41 -7 -9 -40 29 -31 12 -53 -27 -35 -32 15 -35
15 -35 0 0 -7 16 -24 35 -38 19 -14 37 -31 39 -38 11 -25 -25 -24 -58 2 -25
19 -35 22 -39 12 -8 -19 30 -73 69 -96 19 -12 34 -26 34 -31 0 -15 -30 -10
-58 9 -40 28 -60 36 -36 15 11 -10 24 -32 28 -48 4 -16 16 -35 27 -43 26 -18
24 -37 -5 -50 -18 -8 -28 -7 -45 4 -35 25 -27 -10 15 -67 l36 -49 -35 0 c-19
0 -45 9 -60 20 -32 26 -35 25 -30 -5 5 -23 44 -68 88 -99 16 -11 17 -17 8 -27
-9 -9 -17 -9 -35 3 -13 9 -38 19 -57 23 -32 7 -32 6 -20 -17 7 -12 12 -31 10
-40 -1 -10 14 -31 33 -49 20 -17 34 -34 31 -38 -2 -4 5 -15 16 -24 20 -18 26
-62 9 -72 -6 -3 -25 -2 -43 4 -64 20 -111 30 -115 26 -6 -6 39 -68 63 -85 11
-8 31 -26 43 -40 13 -14 27 -25 30 -26 29 -4 39 -17 33 -42 -9 -33 -43 -40
-96 -18 -21 9 -43 16 -50 16 -19 0 -7 -38 16 -50 10 -6 32 -23 49 -38 26 -24
29 -33 24 -61 -4 -20 -11 -30 -19 -27 -7 2 -33 10 -56 17 -64 18 -79 39 -72
102 4 38 3 49 -6 41 -6 -5 -12 -28 -14 -50 -1 -21 -6 -44 -10 -51 -4 -7 -5
-24 -1 -38 5 -19 2 -25 -9 -25 -13 0 -14 -6 -6 -32 13 -45 12 -46 -17 -42 -34
3 -38 9 -39 49 -1 23 3 35 12 35 17 0 17 16 1 23 -12 4 -44 123 -52 192 -2 22
-3 19 -5 -12 0 -23 -7 -43 -14 -46 -9 -3 -9 -9 1 -26 10 -18 10 -21 -4 -21
-19 0 -10 -40 12 -53 21 -12 17 -27 -7 -27 -16 0 -19 -4 -14 -17 19 -47 18
-53 -9 -53 -24 0 -25 -1 -13 -27 6 -16 19 -33 27 -40 8 -6 11 -15 6 -20 -5 -4
-11 -2 -13 5 -3 6 -11 12 -18 12 -8 0 -19 9 -25 21 -9 16 -8 26 4 44 10 15 12
26 6 30 -6 3 -10 13 -10 22 0 9 -7 24 -16 34 -12 14 -13 24 -6 53 6 22 7 38 1
42 -5 3 -9 28 -9 56 0 44 -2 49 -15 38 -12 -10 -19 -10 -28 -1 -9 9 -9 14 2
20 9 6 10 11 2 15 -6 4 -12 28 -13 54 -1 43 -2 44 -5 10 -3 -25 -8 -35 -17
-32 -9 3 -12 -4 -11 -26 1 -16 -1 -30 -3 -30 -17 0 -91 43 -96 55 -3 8 0 41 5
75 11 57 12 60 36 54 17 -5 30 0 44 15 19 20 19 21 -3 25 -13 2 -41 8 -63 13
l-40 8 -1 62 c-1 41 3 67 12 74 11 9 10 15 -6 31 -11 12 -17 24 -15 28 3 4 7
54 10 111 l4 104 -20 -80 c-16 -65 -18 -99 -13 -183 8 -133 1 -143 -98 -141
-60 1 -68 4 -63 19 3 9 -1 23 -10 30 -17 14 -20 53 -5 80 6 11 6 21 1 24 -9 6
-21 -40 -21 -85 0 -32 -16 -47 -33 -30 -31 31 -30 -20 1 -69 26 -41 27 -50 7
-50 -22 0 -65 22 -65 33 0 6 -10 1 -22 -10 -29 -26 -128 -76 -136 -69 -3 4 4
19 16 34 26 32 95 172 89 179 -3 2 -19 -3 -37 -12 -39 -20 -48 -14 -29 22 7
16 15 32 17 36 2 4 -8 5 -22 1 -14 -3 -26 -3 -26 1 0 20 34 106 46 116 13 11
20 49 9 49 -3 0 -14 -5 -25 -12 -33 -21 -36 1 -7 53 40 73 35 113 -11 83 -28
-18 -41 -12 -22 11 7 9 16 36 20 61 6 41 5 45 -11 41 -15 -4 -18 -1 -14 16 27
121 27 146 0 86 l-16 -34 4 33 c2 17 0 32 -5 32 -4 0 -8 28 -9 63 -1 68 -4 67
-14 -6 -5 -38 -10 -47 -22 -43 -12 5 -14 0 -11 -21 3 -16 9 -37 13 -47 7 -16
5 -18 -13 -14 -26 7 -27 2 -7 -32 23 -40 19 -51 -11 -39 -35 13 -39 7 -20 -32
20 -41 21 -39 -15 -39 l-31 0 17 -27 c10 -16 24 -32 32 -36 25 -15 4 -25 -42
-19 -42 4 -45 3 -45 -19 0 -15 15 -38 40 -62 22 -20 40 -42 40 -47 0 -15 -33
-12 -58 6 -20 14 -22 14 -22 -4 0 -10 9 -27 20 -37 12 -10 19 -24 16 -32 -3
-7 7 -21 21 -33 36 -28 7 -25 -44 5 -24 13 -43 20 -43 16 0 -20 31 -79 55
-105 l26 -28 -28 4 c-15 3 -35 8 -45 12 -14 7 -16 2 -11 -35 4 -30 16 -52 40
-76 52 -53 40 -68 -30 -38 -47 19 -50 19 -37 -5 6 -11 8 -25 4 -31 -3 -6 3
-24 15 -40 23 -31 21 -35 -10 -18 -11 5 -17 14 -14 20 4 5 -5 9 -18 9 -28 0
-51 22 -67 65 -10 27 -10 28 7 14 21 -18 53 -14 53 7 0 8 -11 20 -25 26 -14 6
-25 16 -25 23 0 6 -13 21 -30 33 -37 28 -40 45 -4 32 14 -6 27 -10 28 -10 2 0
6 14 10 30 3 18 12 30 21 30 8 0 15 5 15 10 0 6 10 15 23 20 21 8 20 9 -8 11
-16 1 -34 1 -39 0 -4 -1 -14 3 -21 9 -9 8 -15 8 -20 0 -9 -15 -25 -12 -25 6 0
18 18 37 43 47 10 4 17 15 15 24 -1 10 1 24 6 31 11 18 -1 29 -16 14 -19 -19
-28 -14 -19 11 4 12 6 27 4 34 -2 7 1 22 7 33 10 18 8 26 -9 44 -20 21 -20 24
-5 37 15 12 15 14 -7 20 -15 3 -22 11 -19 20 6 21 4 142 -4 174 -7 26 -8 27
-23 12 -14 -14 -15 -25 -6 -74 12 -62 10 -74 -9 -55 -29 29 -39 1 -10 -31 16
-20 16 -20 -3 -13 -55 22 -61 20 -32 -11 29 -32 27 -43 -10 -43 -26 0 -28 -7
-12 -47 23 -57 34 -78 45 -85 16 -11 4 -67 -16 -78 -13 -7 -25 -4 -45 12 l-28
22 7 -50 c4 -27 9 -58 11 -69 2 -11 4 -28 4 -37 1 -9 10 -19 20 -23 13 -4 18
-12 14 -21 -3 -8 2 -23 11 -33 16 -18 15 -20 -24 -40 -22 -11 -52 -21 -65 -21
-38 0 -30 -27 14 -50 24 -12 24 -13 6 -26 -16 -12 -21 -11 -38 4 -19 16 -20
16 -14 0 9 -26 -15 -23 -41 5 -23 25 -29 47 -12 47 6 0 10 9 10 21 0 12 23 43
56 74 51 49 54 54 35 60 -13 4 -28 1 -36 -5 -12 -10 -16 -9 -21 4 -4 9 -21 24
-38 33 -52 27 -63 58 -17 48 51 -11 110 45 65 62 -8 3 -20 1 -27 -6 -18 -18
-52 -13 -75 12 -23 24 -33 72 -11 50 9 -9 19 -5 40 17 38 37 39 61 2 54 -36
-6 -50 4 -54 40 -4 28 -2 30 60 42 59 12 80 25 81 48 0 5 -27 6 -60 3 -65 -6
-90 6 -90 44 0 22 4 23 29 8 15 -10 22 -8 40 10 11 11 25 21 30 21 5 0 13 9
16 20 3 11 15 20 26 20 21 0 23 7 9 30 -7 12 -15 9 -41 -18 -21 -22 -38 -31
-48 -26 -9 4 -24 7 -34 8 -10 1 -29 20 -44 41 l-26 38 24 19 c37 29 79 71 79
79 0 4 -15 9 -34 11 l-35 3 19 40 c11 22 19 44 20 49 0 5 7 14 16 20 9 7 14
22 12 36 l-3 23 -31 -26 c-37 -31 -58 -35 -50 -9 3 9 8 30 12 47 4 16 18 38
31 48 31 25 29 41 -7 67 -30 21 -39 53 -20 65 15 9 12 25 -5 25 -20 0 -19 39
0 47 14 5 13 7 -3 19 -17 11 -19 23 -15 91 l4 78 -21 -39 c-19 -34 -21 -45
-12 -95 14 -85 10 -105 -21 -109 -15 -2 -27 -5 -27 -8 0 -3 11 -27 25 -54 15
-29 21 -50 14 -50 -6 0 -8 -7 -5 -15 3 -8 9 -23 13 -32 5 -14 1 -13 -24 5 -17
12 -39 22 -49 22 -14 0 -13 -4 7 -21 13 -12 33 -27 44 -35 14 -10 17 -18 10
-28 -48 -65 -47 -59 -25 -104 24 -50 25 -53 3 -45 -13 5 -15 2 -10 -11 4 -9 1
-34 -7 -56 -7 -22 -10 -44 -5 -52 25 -38 0 -37 -46 3 -44 39 -49 14 -5 -28 33
-30 39 -46 15 -37 -16 6 -21 -7 -7 -20 4 -4 12 -26 18 -49 9 -36 8 -46 -9 -70
-18 -27 -18 -29 -2 -41 25 -18 10 -36 -31 -36 -26 0 -34 -4 -34 -18 0 -11 -14
-27 -34 -37 -29 -16 -37 -17 -51 -5 -14 12 -13 16 11 42 15 15 33 28 40 28 7
0 14 8 16 17 2 10 12 18 23 18 13 0 21 9 26 30 4 17 10 37 13 46 6 14 1 16
-36 12 -24 -3 -56 0 -72 7 l-29 11 21 15 c19 13 62 82 62 99 0 3 -22 5 -50 5
-42 0 -48 2 -43 17 11 30 46 63 65 63 10 0 18 5 18 10 0 6 7 10 15 10 9 0 15
9 15 21 0 18 -4 20 -30 14 -37 -8 -100 11 -100 31 0 8 8 14 18 14 14 0 28 21
60 91 1 3 -21 4 -49 1 -42 -4 -50 -2 -45 9 3 8 9 22 12 32 4 9 10 17 15 17 5
0 9 7 9 15 0 11 7 14 24 9 22 -5 26 -1 35 32 11 42 8 52 -11 36 -19 -14 -88
-32 -88 -22 0 5 5 12 10 15 6 3 10 17 10 31 0 13 5 24 10 24 6 0 10 7 10 16 0
8 5 12 10 9 6 -4 10 5 10 19 0 20 5 26 21 26 19 0 21 4 15 31 -3 17 -6 40 -6
51 0 20 -1 20 -27 3 -16 -9 -40 -30 -54 -47 -17 -18 -29 -25 -34 -19 -8 15 5
101 16 101 5 0 9 8 9 18 1 16 1 16 14 -1 12 -15 13 -13 13 22 l0 40 -28 -21
c-16 -12 -31 -19 -35 -16 -9 9 29 127 47 146 13 15 39 74 39 90 0 3 -13 -7
-30 -23 l-30 -29 0 26 c0 39 28 100 58 126 l27 24 -30 -7 c-52 -11 -68 -10
-73 3 -2 8 5 16 17 19 26 7 27 21 4 30 -10 4 -21 10 -24 15 -8 13 2 69 12 62
5 -3 12 14 15 36 4 23 13 48 21 56 20 19 7 37 -17 24 -45 -24 -79 -1 -47 32
22 23 40 66 32 77 -4 7 -16 9 -28 5 -21 -6 -21 -6 -6 12 18 21 12 49 -11 49
-9 0 -15 10 -16 25 -1 14 -2 40 -3 58 0 17 -5 32 -11 32 -6 0 -10 -32 -10 -75z
m-50 -1170 c5 -13 6 -32 3 -43 -4 -18 -9 -19 -31 -11 -15 6 -34 17 -43 25 -15
14 -15 17 4 38 24 28 55 23 67 -9z m326 -804 c-3 -4 -19 -11 -34 -14 -18 -4
-31 -14 -35 -26 -3 -13 -13 -21 -27 -21 -21 0 -21 1 7 34 21 26 36 35 61 35
18 1 31 -3 28 -8z m3265 -172 c-12 -10 -21 -24 -21 -33 0 -16 -12 -21 -23 -10
-9 10 12 57 36 80 l22 21 3 -21 c3 -12 -5 -27 -17 -37z m5291 -85 c17 -37 0
-42 -27 -9 -30 37 -31 45 -4 38 11 -3 26 -16 31 -29z m-7307 6 c3 -11 11 -20
16 -20 5 0 9 -7 9 -15 0 -8 7 -15 15 -15 8 0 15 -7 15 -15 0 -8 3 -15 8 -15 4
0 13 -10 20 -21 13 -21 13 -21 -25 -14 -21 4 -42 10 -48 13 -5 4 -19 8 -29 9
-33 5 -33 13 -4 57 10 14 10 20 1 23 -13 5 -6 33 7 33 5 0 12 -9 15 -20z
m1986 -83 c-8 -8 -11 -3 -11 19 1 25 2 27 11 11 8 -14 8 -22 0 -30z m-2135 9
c3 -8 13 -12 23 -9 9 2 23 -3 30 -11 9 -11 10 -16 2 -16 -6 0 -11 -11 -11 -24
0 -14 -5 -28 -10 -31 -6 -4 -8 -11 -5 -16 7 -10 -1 -11 -33 -3 -15 5 -21 12
-17 22 4 11 0 13 -17 8 -13 -3 -28 -6 -34 -6 -7 0 -14 -9 -17 -20 -6 -21 -33
-37 -45 -25 -4 4 12 24 36 44 23 20 42 44 42 53 0 18 26 48 41 48 5 0 12 -6
15 -14z m7721 -8 c-3 -8 -6 -5 -6 6 -1 11 2 17 5 13 3 -3 4 -12 1 -19z m-8383
-29 c-8 -14 -24 -10 -24 6 0 9 6 12 15 9 8 -4 12 -10 9 -15z m7040 -15 c15
-40 -5 -83 -29 -61 -11 10 -11 27 1 65 5 17 21 15 28 -4z m-93 -22 c-6 -2 -9
-8 -5 -13 3 -5 0 -9 -5 -9 -14 0 -14 6 1 33 8 17 13 18 16 7 3 -7 0 -16 -7
-18z m1159 16 c0 -4 -16 -8 -35 -8 -19 0 -35 4 -35 9 0 5 16 9 35 8 19 -1 35
-5 35 -9z m223 -25 c-19 -14 -43 -17 -43 -5 0 13 14 29 30 34 22 7 32 -15 13
-29z m-7507 2 c3 -14 12 -25 20 -25 8 0 14 -7 14 -15 0 -8 5 -15 10 -15 6 0
19 -9 30 -20 20 -20 20 -20 -3 -34 -12 -8 -41 -19 -64 -26 -24 -6 -43 -15 -43
-20 0 -6 -12 -10 -26 -10 -23 0 -25 3 -22 33 2 21 8 32 18 31 9 -1 23 10 33
22 18 24 18 24 -6 24 -22 0 -37 16 -37 40 0 9 47 39 62 40 4 0 10 -11 14 -25z
m2608 -22 c13 -32 -21 -46 -44 -18 -10 12 -10 18 0 29 13 17 36 11 44 -11z
m-1473 -23 c-8 -5 -7 -17 4 -43 19 -45 19 -47 0 -47 -10 0 -15 10 -15 26 0 26
0 26 -27 9 -16 -10 -40 -29 -55 -43 -35 -33 -46 -23 -16 13 62 76 113 122 116
108 2 -9 -1 -19 -7 -23z m-1977 -9 c-2 -2 -15 0 -29 3 -22 6 -24 10 -15 21 10
12 14 11 29 -3 10 -9 16 -19 15 -21z m255 10 c33 -18 34 -19 13 -30 -33 -18
-70 -14 -77 9 -13 42 10 50 64 21z m2572 -64 c-13 -13 -15 41 -3 70 5 13 8 8
10 -21 2 -21 -1 -43 -7 -49z m-2177 34 c3 -5 -7 -17 -22 -27 -15 -9 -38 -24
-52 -33 l-25 -16 23 32 c32 45 64 63 76 44z m-723 -33 c6 -11 17 -17 25 -14 9
3 25 -5 40 -21 13 -14 24 -20 24 -14 0 7 5 9 10 6 8 -5 7 -11 -1 -21 -15 -18
-33 -18 -49 1 -17 21 -24 12 -11 -14 11 -19 9 -20 -43 -20 -71 1 -80 12 -59
76 13 41 20 49 35 45 10 -2 23 -13 29 -24z m805 -35 c-2 -2 -15 1 -30 6 -17 7
-26 18 -26 33 0 21 1 21 30 -7 16 -16 28 -30 26 -32z m324 -12 c0 -11 11 -29
25 -39 14 -11 21 -23 16 -26 -12 -8 -73 62 -66 75 10 16 25 10 25 -10z m6938
-7 c5 -9 13 -14 18 -12 5 1 10 -7 12 -19 4 -31 16 -29 32 5 l14 27 4 -24 c5
-30 -14 -47 -60 -54 -31 -5 -36 -3 -31 11 5 13 0 11 -19 -5 -31 -29 -33 -29
-36 8 -4 54 6 71 50 78 4 0 11 -6 16 -15z m-7287 -21 c10 -24 20 -113 13 -113
-11 0 -93 41 -98 48 -11 18 23 80 46 85 13 2 24 5 26 6 1 0 7 -11 13 -26z
m6153 2 c19 -14 18 -15 -12 -15 -30 0 -40 9 -25 23 9 10 15 8 37 -8z m2566 5
c4 0 13 -13 19 -30 14 -41 -1 -38 -35 7 -21 27 -23 35 -10 30 10 -4 21 -7 26
-7z m-397 -57 c-15 -11 -15 -13 0 -19 23 -8 22 -24 -1 -24 -10 0 -24 -6 -31
-12 -11 -11 -12 -10 -6 0 13 24 18 75 6 67 -7 -4 -7 3 1 20 l12 26 18 -23 c16
-21 16 -24 1 -35z m-10293 25 c17 -12 30 -28 30 -36 0 -7 -3 -12 -7 -10 -5 3
-23 11 -40 18 -32 14 -41 29 -26 43 9 10 11 9 43 -15z m3234 -14 c12 -5 10
-11 -13 -30 -30 -25 -56 -31 -66 -14 -3 6 1 10 9 10 9 0 21 9 28 20 14 22 18
23 42 14z m-1122 -51 c-22 -17 -59 -16 -65 2 -7 17 6 27 26 19 8 -3 18 -1 22
5 4 7 10 7 20 -2 12 -10 11 -14 -3 -24z m5964 -11 c-10 -10 -29 15 -21 28 6 9
10 8 17 -4 6 -10 7 -20 4 -24z m-2405 4 c34 -29 25 -40 -20 -23 -19 7 -31 18
-31 29 0 25 17 23 51 -6z m-5438 -35 l27 -49 -50 -42 c-27 -23 -50 -37 -50
-30 0 12 19 52 29 60 4 3 12 18 19 34 11 24 10 32 -3 52 -8 13 -12 24 -8 24 5
0 20 -22 36 -49z m6304 1 c-8 -9 -16 -24 -19 -32 -3 -8 -7 -10 -11 -4 -3 6 3
26 15 45 13 21 23 29 26 21 2 -7 -3 -21 -11 -30z m4873 19 c-5 -11 -15 -23
-20 -26 -6 -4 -8 -11 -5 -16 4 -5 1 -9 -4 -9 -16 0 -13 22 5 48 19 28 39 30
24 3z m-8278 -13 c-7 -7 -12 -8 -12 -2 0 14 12 26 19 19 2 -3 -1 -11 -7 -17z
m-804 -37 c15 -12 14 -13 -10 -7 -15 3 -30 2 -33 -4 -3 -5 -10 -10 -16 -10
-13 0 -11 38 4 55 10 12 14 11 25 -3 7 -9 20 -23 30 -31z m6914 18 c-19 -17
-36 -28 -39 -26 -7 8 17 48 25 43 5 -3 14 -1 22 5 28 17 25 8 -8 -22z m-226
-29 c1 -47 0 -50 -25 -50 -14 0 -33 5 -41 10 -13 8 -12 10 3 10 11 0 23 15 33
40 9 22 19 40 23 40 3 0 6 -23 7 -50z m1189 40 c3 -5 1 -10 -4 -10 -6 0 -11 5
-11 10 0 6 2 10 4 10 3 0 8 -4 11 -10z m85 0 c0 -5 -4 -10 -10 -10 -5 0 -10 5
-10 10 0 6 5 10 10 10 6 0 10 -4 10 -10z m310 1 c0 -5 -7 -12 -16 -15 -14 -5
-15 -4 -4 9 14 17 20 19 20 6z m53 -3 c3 -10 7 -10 20 1 10 8 17 9 17 3 0 -6
-5 -14 -11 -17 -15 -10 -61 4 -54 15 9 14 23 12 28 -2z m-10653 -22 c5 -13 13
-27 18 -30 12 -7 4 -46 -9 -46 -5 0 -9 5 -9 10 0 6 -11 10 -25 10 -33 0 -41
22 -20 54 21 32 33 33 45 2z m7876 7 c22 -29 18 -49 -6 -28 -19 17 -27 45 -14
45 4 0 13 -8 20 -17z m-5914 -15 c-17 -17 -15 -28 4 -28 12 0 15 -6 10 -24 -3
-14 -2 -28 4 -31 18 -11 11 -32 -16 -44 -20 -9 -30 -9 -40 0 -16 13 -19 55 -5
63 5 3 12 18 16 33 7 31 25 56 33 48 3 -3 0 -11 -6 -17z m8320 -10 c-7 -7 -12
-8 -12 -2 0 14 12 26 19 19 2 -3 -1 -11 -7 -17z m-8721 -18 c5 0 9 -4 9 -10 0
-14 -84 -12 -98 2 -20 20 -14 28 14 18 20 -8 29 -6 42 7 16 15 17 15 20 0 2
-9 8 -17 13 -17z m8621 7 c-7 -8 -9 -17 -5 -20 10 -11 -30 -8 -47 3 -12 8 -9
10 11 10 16 0 30 7 33 16 4 9 9 14 13 11 3 -4 1 -13 -5 -20z m-7467 -8 c10
-14 1 -21 -19 -13 -9 3 -13 10 -10 15 7 12 21 11 29 -2z m2961 -31 c17 -33 11
-69 -8 -50 -7 7 -22 12 -35 12 -28 0 -30 22 -5 55 20 27 27 25 48 -17z m-4516
18 c1 5 11 -4 25 -20 20 -26 26 -28 40 -16 12 10 19 10 27 2 8 -8 4 -14 -15
-23 -23 -10 -30 -8 -66 22 -22 19 -41 38 -41 43 0 5 7 3 15 -4 8 -7 15 -9 15
-4z m2540 -1 c0 -9 7 -18 16 -22 8 -3 13 -12 10 -19 -4 -9 2 -14 17 -14 13 0
26 -9 32 -22 6 -13 24 -27 43 -33 33 -10 44 -25 16 -25 -29 0 -130 63 -142 89
-15 31 -16 61 -2 61 6 0 10 -7 10 -15z m4170 -26 c0 -6 -4 -7 -10 -4 -5 3 -10
11 -10 16 0 6 5 7 10 4 6 -3 10 -11 10 -16z m3507 -1 c-3 -8 -6 -5 -6 6 -1 11
2 17 5 13 3 -3 4 -12 1 -19z m-8732 -27 l17 -34 -33 7 c-17 3 -38 11 -46 18
-11 9 -9 14 14 29 15 10 28 17 29 16 1 -1 9 -17 19 -36z m3872 17 c-3 -8 -6
-5 -6 6 -1 11 2 17 5 13 3 -3 4 -12 1 -19z m-3760 -5 c34 -19 67 -69 52 -79
-5 -3 -16 -1 -24 6 -7 6 -27 9 -44 7 -38 -6 -45 2 -24 25 16 18 16 19 -5 25
-18 4 -20 8 -11 19 15 18 21 18 56 -3z m6007 0 c3 -10 9 -24 12 -30 8 -18 -21
-16 -36 2 -13 15 -7 45 9 45 5 0 11 -8 15 -17z m1206 -24 c0 -12 -26 -17 -40
-9 -7 4 -10 15 -7 24 6 14 10 14 27 4 11 -7 20 -16 20 -19z m-9998 -27 c-19
-6 -44 6 -37 18 4 7 14 6 28 -2 14 -7 17 -13 9 -16z m251 -47 c-21 -18 -40
-31 -42 -30 -2 2 14 26 35 53 32 40 40 46 42 30 2 -13 -10 -31 -35 -53z m2927
65 c0 -5 -5 -10 -11 -10 -5 0 -7 5 -4 10 3 6 8 10 11 10 2 0 4 -4 4 -10z
m5883 -2 c2 -7 -2 -20 -10 -29 -11 -13 -22 -15 -49 -9 -45 10 -55 20 -22 20
14 0 28 7 32 15 7 18 43 20 49 3z m-4408 -8 c3 -5 1 -10 -4 -10 -6 0 -11 5
-11 10 0 6 2 10 4 10 3 0 8 -4 11 -10z m3215 -15 c0 -13 -29 -35 -44 -35 -12
0 -6 24 10 41 18 20 34 17 34 -6z m891 -5 c10 -6 19 -16 19 -22 0 -6 7 -20 16
-30 15 -16 15 -18 1 -24 -8 -3 -29 2 -46 10 -39 21 -58 21 -42 2 10 -12 6 -17
-21 -29 -18 -8 -43 -17 -55 -20 -19 -4 -21 -2 -13 13 16 29 71 81 81 75 4 -3
14 3 21 15 15 23 14 23 39 10z m-6111 -20 c8 -14 8 -20 0 -20 -18 0 -50 20
-50 30 0 18 39 10 50 -10z m870 8 c-1 -49 -30 -79 -55 -58 -11 9 -12 7 -8 -9
5 -18 1 -21 -31 -21 -27 0 -34 3 -30 15 4 8 10 15 16 15 5 0 21 13 36 29 36
38 72 52 72 29z m877 -4 c2 -5 -10 -18 -27 -27 -34 -21 -37 -16 -12 18 17 24
33 28 39 9z m1264 0 c12 -14 11 -16 -5 -13 -11 2 -21 10 -24 17 -5 17 13 15
29 -4z m5760 -31 c-9 -15 -10 -12 -10 17 0 29 1 32 10 18 7 -12 7 -24 0 -35z
m-4865 -11 c-11 -10 -15 4 -8 28 l7 25 3 -23 c2 -13 1 -26 -2 -30z m3404 28
c9 -17 8 -20 -10 -20 -11 0 -25 -9 -32 -20 -7 -11 -23 -20 -36 -20 -23 0 -22
1 7 26 17 14 31 32 31 40 0 21 28 17 40 -6z m-9905 1 c6 -11 -22 -41 -39 -41
-24 0 -25 13 -3 31 25 21 33 23 42 10z m1845 0 c0 -5 -7 -14 -15 -21 -16 -14
-18 -10 -9 14 6 17 24 22 24 7z m1880 -33 c0 -11 -28 -10 -52 3 -20 11 -20 11
3 24 20 10 26 9 37 -3 6 -9 12 -19 12 -24z m-1260 22 c0 -5 -4 -10 -10 -10 -5
0 -10 5 -10 10 0 6 5 10 10 10 6 0 10 -4 10 -10z m-2233 -82 c-2 -13 -4 -3 -4
22 0 25 2 35 4 23 2 -13 2 -33 0 -45z m4664 51 c-13 -5 -30 -17 -37 -27 -7 -9
-15 -14 -19 -10 -12 11 29 46 55 47 l25 0 -24 -10z m769 -4 c0 -16 -43 -31
-60 -20 -8 5 -4 12 12 20 32 18 48 18 48 0z m2194 0 c4 -10 -2 -19 -17 -24
-12 -5 -24 -6 -27 -3 -3 2 1 7 8 9 6 3 12 11 12 19 0 19 16 18 24 -1z m3776
-48 c0 -7 -12 1 -25 16 -14 15 -25 33 -25 40 0 7 12 -1 25 -16 14 -15 25 -33
25 -40z m-4053 21 c-3 -8 -6 -5 -6 6 -1 11 2 17 5 13 3 -3 4 -12 1 -19z m1424
0 c-5 -13 -17 -25 -27 -27 -16 -3 -15 1 6 23 31 31 31 32 21 4z m-6431 8 c0
-2 3 -11 6 -20 4 -10 1 -16 -9 -16 -17 0 -40 24 -30 33 7 8 33 10 33 3z m120
-12 c0 -2 -9 -4 -21 -4 -11 0 -18 4 -14 10 5 8 35 3 35 -6z m2694 -28 l-6 -27
-24 22 c-27 25 -32 44 -9 36 8 -4 17 -1 21 4 12 19 25 -7 18 -35z m-5594 2 c0
-5 -9 -4 -20 2 -11 6 -18 15 -14 21 6 11 34 -7 34 -23z m3325 22 c-3 -5 -11
-10 -16 -10 -6 0 -7 5 -4 10 3 6 11 10 16 10 6 0 7 -4 4 -10z m4126 -7 c29
-17 46 -43 29 -43 -5 0 -14 9 -21 21 -8 15 -14 18 -22 10 -7 -7 -6 -15 3 -26
15 -18 0 -21 -18 -3 -12 12 -17 58 -6 58 3 0 19 -8 35 -17z m-7284 -23 c2 -8
-1 -21 -6 -29 -7 -12 -14 -10 -35 7 -25 19 -26 21 -9 31 24 14 47 10 50 -9z
m3805 1 c-1 -6 11 -14 27 -17 22 -5 27 -10 24 -25 -4 -13 2 -21 18 -27 14 -6
18 -11 11 -16 -6 -4 -28 0 -48 9 -29 12 -35 19 -31 35 4 17 0 20 -31 20 l-37
1 24 20 c25 20 48 20 43 0z m4108 9 c0 -5 -5 -10 -11 -10 -5 0 -7 5 -4 10 3 6
8 10 11 10 2 0 4 -4 4 -10z m-5128 -22 c-5 -20 -47 -24 -72 -8 -12 7 -10 11
10 18 39 15 68 10 62 -10z m698 12 c0 -5 -10 -10 -22 -10 -13 0 -34 -3 -48 -7
-22 -6 -24 -5 -11 10 15 18 81 24 81 7z m2011 -6 c12 -14 11 -16 -5 -13 -11 2
-21 10 -24 17 -5 17 13 15 29 -4z m2147 4 c-3 -7 -13 -15 -24 -17 -16 -3 -17
-1 -5 13 16 19 34 21 29 4z m-1238 -67 c0 -9 7 -11 21 -8 16 4 20 1 17 -16 -2
-17 -11 -23 -37 -25 -43 -4 -123 17 -115 30 4 5 -3 16 -14 24 -25 17 -18 52
12 56 26 5 116 -42 116 -61z m4667 37 c-3 -7 -5 -2 -5 12 0 14 2 19 5 13 2 -7
2 -19 0 -25z m-6692 13 c3 -5 1 -12 -5 -16 -5 -3 -10 1 -10 9 0 18 6 21 15 7z
m1292 -6 c1 -5 -1 -16 -6 -24 -7 -11 -13 -10 -35 4 -14 9 -23 21 -20 27 7 12
56 6 61 -7z m4900 -2 c-17 -17 -24 -19 -92 -28 -36 -5 -37 -4 -15 6 45 21 65
28 85 32 37 8 39 7 22 -10z m-10357 -3 c0 -5 -5 -10 -11 -10 -5 0 -7 5 -4 10
3 6 8 10 11 10 2 0 4 -4 4 -10z m2410 -12 c30 -22 39 -51 20 -63 -6 -4 -18 -1
-26 6 -12 10 -12 14 -2 21 10 7 9 12 -5 21 -49 32 -53 36 -34 37 10 0 31 -10
47 -22z m5048 -8 c13 -22 13 -22 -36 -33 -22 -5 -23 -4 -8 12 9 10 16 23 16
29 0 18 14 14 28 -8z m-4870 -21 c-7 -5 -22 -9 -32 -9 -19 0 -19 0 -1 14 11 8
25 11 33 8 11 -4 11 -6 0 -13z m652 2 c0 -14 -9 -21 -31 -26 -33 -8 -42 -5
-31 10 8 11 43 34 55 34 4 1 7 -8 7 -18z m90 -1 c0 -5 -4 -10 -10 -10 -5 0
-10 5 -10 10 0 6 5 10 10 10 6 0 10 -4 10 -10z m1650 1 c0 -5 11 -19 24 -32
27 -26 20 -49 -15 -49 -11 0 -19 -4 -19 -10 0 -17 -26 -11 -46 11 -14 16 -15
23 -6 26 6 3 12 11 12 18 0 15 27 45 41 45 5 0 9 -4 9 -9z m211 -1 c38 -21 13
-52 -33 -42 -27 5 -22 52 4 52 5 0 18 -5 29 -10z m-1074 -16 c3 -10 -75 -69
-82 -62 -3 2 9 21 26 42 29 35 49 42 56 20z m2963 -26 c0 -6 -6 -5 -15 2 -8 7
-15 14 -15 16 0 2 7 1 15 -2 8 -4 15 -11 15 -16z m3777 -10 c-3 -8 -6 -5 -6 6
-1 11 2 17 5 13 3 -3 4 -12 1 -19z m-7477 -3 c10 -13 9 -15 -9 -15 -12 0 -21
6 -21 15 0 8 4 15 9 15 5 0 14 -7 21 -15z m3988 -4 c3 -8 -1 -12 -9 -9 -7 2
-15 10 -17 17 -3 8 1 12 9 9 7 -2 15 -10 17 -17z m122 -31 c0 -16 -19 -21 -27
-7 -4 7 -16 17 -26 20 -10 4 -15 11 -12 17 7 11 65 -15 65 -30z m-4237 16 c9
-7 17 -16 17 -19 0 -12 -81 -36 -99 -29 -20 7 -20 8 2 34 24 30 52 35 80 14z
m7677 4 c0 -5 -2 -10 -4 -10 -3 0 -8 5 -11 10 -3 6 -1 10 4 10 6 0 11 -4 11
-10z m-11272 -8 c20 -13 -21 -45 -47 -37 -21 6 -21 6 1 25 26 22 28 23 46 12z
m6450 -34 c7 -10 20 -18 29 -18 9 0 13 -3 10 -6 -10 -10 -71 23 -85 46 -12 19
-11 20 10 8 13 -7 29 -21 36 -30z m-775 26 c11 -12 -21 -34 -50 -34 l-28 1 24
19 c24 20 43 25 54 14z m5627 -4 c0 -5 12 -16 28 -24 32 -18 14 -21 -23 -4
-24 11 -35 38 -15 38 6 0 10 -4 10 -10z m490 -17 c0 -20 -3 -24 -11 -16 -7 7
-9 19 -6 27 10 24 17 19 17 -11z m-4356 2 c25 -19 19 -25 -16 -18 -16 3 -28
12 -28 19 0 18 20 17 44 -1z m226 -26 c0 -6 -4 -7 -10 -4 -5 3 -10 11 -10 16
0 6 5 7 10 4 6 -3 10 -11 10 -16z m4047 -1 c-3 -8 -6 -5 -6 6 -1 11 2 17 5 13
3 -3 4 -12 1 -19z"/>
<path d="M6086 1885 c-4 -26 -3 -52 3 -62 8 -14 10 -3 11 45 0 34 -2 62 -4 62
-2 0 -7 -20 -10 -45z"/>
<path d="M10652 1675 c0 -16 2 -22 5 -12 2 9 2 23 0 30 -3 6 -5 -1 -5 -18z"/>
<path d="M10546 1403 c-6 -14 -5 -15 5 -6 7 7 10 15 7 18 -3 3 -9 -2 -12 -12z"/>
<path d="M3790 1183 c0 -4 5 -15 10 -23 8 -13 10 -13 10 2 0 9 -4 20 -10 23
-5 3 -10 3 -10 -2z"/>
</g>
</svg>
